<svg xmlns="http://www.w3.org/2000/svg" viewBox="0 0 1024 1024">
  <defs>
    <radialGradient id="bg" cx="0.5" cy="0.35" r="0.8">
      <stop offset="0" stop-color="#1F6B3A"/>
      <stop offset="0.55" stop-color="#0E2F24"/>
      <stop offset="1" stop-color="#071a13"/>
    </radialGradient>
    <radialGradient id="glow" cx="0.5" cy="0.45" r="0.5">
      <stop offset="0" stop-color="#FFD34E" stop-opacity="0.35"/>
      <stop offset="1" stop-color="#FFD34E" stop-opacity="0"/>
    </radialGradient>
  </defs>
  <rect width="1024" height="1024" fill="url(#bg)"/>
  <!-- jungle leaves -->
  <g fill="#17452c" opacity="0.9">
    <path d="M -40 760 C 120 640 260 700 300 860 C 180 900 40 880 -40 760 Z"/>
    <path d="M 1064 700 C 900 600 780 690 740 860 C 880 900 1000 860 1064 700 Z"/>
    <path d="M 60 120 C 220 80 320 200 280 340 C 160 330 60 240 60 120 Z"/>
    <path d="M 964 140 C 800 100 700 220 740 360 C 860 350 964 260 964 140 Z"/>
  </g>
  <g fill="#1F6B3A" opacity="0.8">
    <path d="M -20 880 C 120 800 240 840 260 960 L -20 1024 Z"/>
    <path d="M 1044 860 C 900 790 790 840 770 960 L 1044 1024 Z"/>
  </g>
  <circle cx="512" cy="470" r="420" fill="url(#glow)"/>
  <!-- ears -->
  <g stroke="#1A1208" stroke-width="18">
    <circle cx="300" cy="470" r="86" fill="#FFD34E"/>
    <circle cx="724" cy="470" r="86" fill="#FFD34E"/>
    <circle cx="300" cy="470" r="44" fill="#FFF0B3"/>
    <circle cx="724" cy="470" r="44" fill="#FFF0B3"/>
  </g>
  <!-- head -->
  <ellipse cx="512" cy="500" rx="238" ry="224" fill="#FFD34E" stroke="#1A1208" stroke-width="20"/>
  <!-- face -->
  <path d="M 340 540 C 340 430 420 380 512 380 C 604 380 684 430 684 540 C 684 650 604 700 512 700 C 420 700 340 650 340 540 Z" fill="#FFF0B3" stroke="#1A1208" stroke-width="16"/>
  <!-- eyes -->
  <g fill="#1A1208">
    <circle cx="452" cy="500" r="26"/>
    <circle cx="572" cy="500" r="26"/>
  </g>
  <g fill="#fff">
    <circle cx="462" cy="490" r="8"/>
    <circle cx="582" cy="490" r="8"/>
  </g>
  <!-- nose + smile -->
  <ellipse cx="512" cy="560" rx="22" ry="14" fill="#1A1208"/>
  <path d="M 420 600 C 460 660 564 660 604 600" fill="none" stroke="#1A1208" stroke-width="18" stroke-linecap="round"/>
  <!-- bowler hat -->
  <g stroke="#1A1208" stroke-width="18" stroke-linejoin="round">
    <path d="M 250 330 L 774 330 C 800 330 810 300 790 290 L 234 290 C 214 300 224 330 250 330 Z" fill="#1A1A1A"/>
    <path d="M 320 292 C 320 170 420 110 512 110 C 604 110 704 170 704 292 Z" fill="#1A1A1A"/>
    <rect x="330" y="248" width="364" height="34" fill="#FFD34E" stroke="none"/>
  </g>
  <!-- banana -->
  <g transform="translate(760 760) rotate(-25)">
    <path d="M -120 0 C -90 80 40 100 110 40" fill="none" stroke="#1A1208" stroke-width="58" stroke-linecap="round"/>
    <path d="M -120 0 C -90 80 40 100 110 40" fill="none" stroke="#FFD34E" stroke-width="40" stroke-linecap="round"/>
    <path d="M -104 -4 C -80 56 20 76 88 30" fill="none" stroke="#FFF0B3" stroke-width="10" stroke-linecap="round"/>
    <path d="M -132 -14 L -146 -36" stroke="#1A1208" stroke-width="18" stroke-linecap="round"/>
  </g>
</svg>
